<svg id="Layer_1" data-name="Layer 1" xmlns="http://www.w3.org/2000/svg" viewBox="0 0 244.96 57.75"><defs><style>.cls-1{fill:#fae16d;}.cls-2{fill:#ad2f99;}</style></defs><path class="cls-1" d="M234.1,41.48c0,.37-.11.41-.25.41s-6.59.07-7.22,0-8.66,0-8.92,0-.22-.18-.22-.18c0-1.34-.07-6.44-.07-7s0-9,0-9.7,0-8.47,0-8.65,0-.3.26-.3,7.58,0,8.69,0,7.33,0,7.33,0a.23.23,0,0,1,.26.22v3.22a4.8,4.8,0,0,1-.07,1.33,12.39,12.39,0,0,1-2.37.07c-1,.08-8.18-.07-8.59-.07s-.33.15-.33.3.07,1.25.07,1.66,0,3.92,0,4.7.3.48.3.48.63-.26,1.14-.44,5.18-2.15,5.18-2.15c.26-.07.45-.22.49-.15a3.29,3.29,0,0,1,0,.63c0,.34,0,3.48,0,3.81s-.52.48-1.22.74-5.74,2.37-5.85,2.45-.11.18-.11.18c0,.15.11,3.55.11,3.85s0,.22.26.22,3.66,0,4.15,0,6.32,0,6.62,0,.26.22.26.48S234.14,41.11,234.1,41.48Z"/><path class="cls-1" d="M214,41.71a.17.17,0,0,1-.23.18,10.09,10.09,0,0,0-2.58-.3c-.63,0-4,.74-4.63.89a9.61,9.61,0,0,1-5.14-.89,9.7,9.7,0,0,1-4.78-5.36c-.92-2.26-.88-4.92-.88-7.07a16.8,16.8,0,0,1,2.1-8.21c1.6-3,4.19-4.52,6.81-6.29a21.49,21.49,0,0,0,3.7-2.74c.48-.45.45-.41.52-.56s.19-.11.19-.11.14,0,.4.45,2.3,4.22,2.45,4.51-.3.56-.3.56c-.67.48-1.59.92-4.29,2.48a11.75,11.75,0,0,0-4.41,3.81c-.88,1.22-2.25,4.18-1.55,9.58s4.14,5,5.07,4.77a2.86,2.86,0,0,0,2.07-2.88A3,3,0,0,0,207,32c-.08,0-.26,0-.3-.18s.33-.26.81-.48,6.18-2.48,6.33-2.56.19,0,.22.15,0,1.48,0,1.48C213.87,32.16,214,41.52,214,41.71Z"/><path class="cls-1" d="M193.44,27.79a31,31,0,0,1-1.18,8.11,10.77,10.77,0,0,1-3.63,4.84c-1.92,1.48-5.62,1.34-6.88,1.3s-7-.08-7.33-.08-.18-.25-.18-.25c.26-1.11.37-3.26.66-6.29a88.76,88.76,0,0,0-.11-11,48.06,48.06,0,0,0-.59-5c0-.14,0-.14.15-.26s.7-.33,1.92-.88,2.22-1,2.22-1c.23,0,.26-.11.37.26.15.74.11.66.67,3.29a64.64,64.64,0,0,1,.78,9c0,1.37-.23,6.41-.3,7s.26.37.26.37a13.8,13.8,0,0,0,3.29.07c2.59-.11,3.19-1.81,3.59-3a24.47,24.47,0,0,0,.48-4.89,49.66,49.66,0,0,0-.22-8.4c-.48-4-2.92-4.44-2.92-4.44a2.61,2.61,0,0,0-2.67.82c-.18.22-.26,0-.26,0-2.36-2.78-6.32-2.22-6.73-2s-.37-.07-.37-.07a4.76,4.76,0,0,1,.85-1.74c2.11-2,3.29-2.26,6.18-2.63a10.65,10.65,0,0,1,5.63,1.07c3.81,1.78,5.14,6.37,5.14,6.37A28.29,28.29,0,0,1,193.44,27.79Z"/><path class="cls-1" d="M170.65,41.48c0,.37-.11.41-.26.41s-6.58.07-7.21,0-8.66,0-8.92,0-.22-.18-.22-.18c0-1.34-.08-6.44-.08-7s0-9,0-9.7,0-8.47,0-8.65,0-.3.25-.3,7.59,0,8.7,0,7.33,0,7.33,0a.23.23,0,0,1,.26.22v3.22a4.74,4.74,0,0,1-.08,1.33A12.35,12.35,0,0,1,168,21c-1,.08-8.17-.07-8.58-.07s-.33.15-.33.3.07,1.25.07,1.66,0,3.92,0,4.7.29.48.29.48.63-.26,1.15-.44,5.18-2.15,5.18-2.15c.26-.07.44-.22.48-.15a2.48,2.48,0,0,1,0,.63c0,.34,0,3.48,0,3.81s-.52.48-1.23.74-5.73,2.37-5.84,2.45-.11.18-.11.18c0,.15.11,3.55.11,3.85s0,.22.26.22,3.66,0,4.14,0,6.33,0,6.62,0,.26.22.26.48S170.69,41.11,170.65,41.48Z"/><path class="cls-1" d="M141.12,40.71c-1,1.81-3.4,3-4.4,3.44a52.82,52.82,0,0,1-6,1.81A25.68,25.68,0,0,0,127.51,47c-.48.15-.45,0-.48-.07s-1.59-5.55-1.7-5.81.18-.26.18-.26a18.1,18.1,0,0,0,7.88-.66,4.74,4.74,0,0,0,3.52-4.85c-.63-3.44-2.78-3.44-6.44-5.59a9.89,9.89,0,0,1-5.14-7A8.06,8.06,0,0,1,127,16.14c1.92-2.33,5-3,7.51-3.81a18.47,18.47,0,0,0,3.74-1.56c.22-.26.33,0,.33,0,.08.41,1.82,5.33,1.89,5.59s-.11.26-.11.26a20.6,20.6,0,0,0-3.11.11c-2.37.14-6.25,1.48-6.77,4.14s2.7,4.63,2.7,4.63c6.44,2.92,7.47,5.4,7.47,5.4A9.6,9.6,0,0,1,141.12,40.71Z"/><path class="cls-1" d="M122.37,21.06c0,.29,0,.37-.15.48l-2.37,3.4c-.22.34-.37.23-.37.23s-1.3-.74-1.48-.82-.15-.22-.15-.22,1-2.59,1.11-2.7,0-.15,0-.15h-1a.24.24,0,0,1-.15-.11c0-.07,0-4.48,0-4.77s.22-.3.22-.3l4.07.07c.26,0,.3.15.3.15C122.4,16.69,122.37,20.76,122.37,21.06Z"/><path class="cls-1" d="M115.3,45c-.15.11-3.7,1.82-4.18,2a.43.43,0,0,1-.67-.22c-.22-.63-.89-3.41-2.14-9.11a48.82,48.82,0,0,1-1.37-7.77c-.08-.55-.37-.29-.37-.29s-3.85,1.74-4.15,1.88-.18.3-.18.3c0,1-.59,9.47-.67,9.88s-.26.29-.48.29l-4.62,0c-.41,0-.23-.37-.23-.37v-.08a82.53,82.53,0,0,0,.85-11.76,73.39,73.39,0,0,0-.92-10.18c-.07-.41.18-.41.18-.41l4.15-1.85a.2.2,0,0,1,.33.15c.7,3.22,1.26,8.07,1.3,8.51s.22.34.22.34c4.4-1.3,5.73-2.82,5.73-2.82,2.11-2.73,1.6-5.88-.33-7.06A2.87,2.87,0,0,0,104,17c-.11.26-.33,0-.33,0a7.05,7.05,0,0,0-3-1.74,7.17,7.17,0,0,0-4,0c-.34.18-.3-.08-.3-.08a2.15,2.15,0,0,1,.22-.73c2.19-4.56,9.29-3.67,9.29-3.67a9,9,0,0,1,8.81,8.33,9.53,9.53,0,0,1-3.41,8c-.33.29-.14.51-.14.51a107.19,107.19,0,0,0,4.36,16.51C115.78,45,115.48,44.89,115.3,45Z"/><path class="cls-1" d="M92.73,34.75c-1.44,6-5.92,7.33-5.92,7.33A9.17,9.17,0,0,1,77.71,40c-4.15-3.63-3.48-10.33-3.3-11.25A23.05,23.05,0,0,1,75,26c0-.11,0-.15.15-.15a.69.69,0,0,1,.41.18,13.57,13.57,0,0,0,4,1.15c.41.07.26.22.26.22a25.23,25.23,0,0,0-.26,4.63c.23,5.51,4.19,5.44,4.19,5.44,2.81-.3,4.21-2.37,4.36-8.51s-2.07-7.4-2.07-7.4a3.11,3.11,0,0,0-4-.23,2.21,2.21,0,0,0-.19,3.11c-2.44,1.45-6.22-1.44-6.66-1.85S75,22,75,22a9.27,9.27,0,0,1,9.43-6.51c6.62.3,8.18,7.11,8.18,7.11A26.84,26.84,0,0,1,92.73,34.75Z"/><path class="cls-1" d="M71.79,37.6c0,.26,0,3.85,0,4.18s-.18.3-.18.3l-15.14-.15c-.07,0-.18,0-.18-.15s0-3.85,0-4.18a1,1,0,0,1,.18-.74c.11-.26,3.26-5.33,4-6.44s5.77-9.36,5.88-9.55,0-.18,0-.18c-.18,0-8.69,0-9.13,0s-.37-.3-.37-.3,0-3.33,0-4,.48-.41.48-.41c.74.07,14.36.07,14.36.07s.22.19.22.19c0,.59,0,4.07,0,4.07,0,.66-.15.78-.15.78-.33.62-4.62,7.54-4.62,7.54-1.22,2.19-5.33,8.48-5.37,8.59s-.11.18.11.15,9.62,0,9.88,0S71.79,37.6,71.79,37.6Z"/><path class="cls-1" d="M46.26,31.86c0-.22-2.18-9.51-2.3-10.28,0,0,0-.19-.18-.19H42.52s-.11,0-.18.22c0,0-.93,4.18-1.41,6.29s-1.15,5.67-1.33,6.59c0,0-.11.3.15.19s5.51-2.11,6.43-2.6C46.18,32.08,46.33,32.08,46.26,31.86ZM45,31.64c-.11.08-3.22,1.37-3.66,1.48s-.45,0-.45-.11.34-2,.48-2.81S43,22.58,43,22.58s.11,0,.18.18c.26.48,1.92,7.62,2.07,8.29S45.15,31.53,45,31.64Zm1.26.22c0-.22-2.18-9.51-2.3-10.28,0,0,0-.19-.18-.19H42.52s-.11,0-.18.22c0,0-.93,4.18-1.41,6.29s-1.15,5.67-1.33,6.59c0,0-.11.3.15.19s5.51-2.11,6.43-2.6C46.18,32.08,46.33,32.08,46.26,31.86ZM45,31.64c-.11.08-3.22,1.37-3.66,1.48s-.45,0-.45-.11.34-2,.48-2.81S43,22.58,43,22.58s.11,0,.18.18c.26.48,1.92,7.62,2.07,8.29S45.15,31.53,45,31.64Zm1.26.22c0-.22-2.18-9.51-2.3-10.28,0,0,0-.19-.18-.19H42.52s-.11,0-.18.22c0,0-.93,4.18-1.41,6.29s-1.15,5.67-1.33,6.59c0,0-.11.3.15.19s5.51-2.11,6.43-2.6C46.18,32.08,46.33,32.08,46.26,31.86ZM45,31.64c-.11.08-3.22,1.37-3.66,1.48s-.45,0-.45-.11.34-2,.48-2.81S43,22.58,43,22.58s.11,0,.18.18c.26.48,1.92,7.62,2.07,8.29S45.15,31.53,45,31.64Z"/><path class="cls-1" d="M53.55,44.44c-.15-.55-1-4.07-1.11-4.73s-1.3-5.29-1.33-5.44,0-.22.11-.3,1.88-.92,1.88-.92.19,0,.19-.48,0-1.74,0-2,0-2,0-2.11,0-.15-.26-.07-2.44,1.07-2.63,1.11-.33.29-.44-.19-1.52-6.66-1.67-7.21S47.11,16.77,47,16.54s-.12-.44-.52-.44-4.29,0-4.74,0-2,0-2.14,0a.38.38,0,0,0-.41.3c-.08.22-2.11,10-2.26,10.43s-3,14-3,14.58.14.52.33.56H38.6s.37,0,.52-.67.52-2.37.52-2.37a.49.49,0,0,1,.4-.44c.37-.15,2.59-1,3.44-1.44,0,0,1.85-.67,2.48-1s.26-.07.34-.07,1.07,4.37,1.29,5.25,1.18,5.33,1.26,5.56.22.22.41.14,3.84-1.63,4.07-1.81S53.7,45.07,53.55,44.44ZM46.18,32.08c-.92.49-6.21,2.52-6.43,2.6s-.15-.19-.15-.19c.18-.92.81-4.48,1.33-6.59s1.41-6.29,1.41-6.29c.07-.26.18-.22.18-.22h1.26c.18,0,.18.19.18.19.12.77,2.26,10.06,2.3,10.28S46.18,32.08,46.18,32.08Z"/><path class="cls-1" d="M32.09,45c-.15.11-3.7,1.82-4.18,2a.43.43,0,0,1-.67-.22c-.22-.63-.89-3.41-2.15-9.11a49.31,49.31,0,0,1-1.36-7.77c-.08-.55-.37-.29-.37-.29s-3.85,1.74-4.15,1.88-.18.3-.18.3c0,1-.6,9.47-.67,9.88s-.26.29-.48.29l-4.63,0c-.4,0-.22-.37-.22-.37v-.08a82.53,82.53,0,0,0,.85-11.76A73.39,73.39,0,0,0,13,19.54c-.08-.41.18-.41.18-.41l4.15-1.85a.2.2,0,0,1,.33.15c.7,3.22,1.26,8.07,1.3,8.51s.22.34.22.34c4.4-1.3,5.73-2.82,5.73-2.82,2.11-2.73,1.59-5.88-.33-7.06A2.87,2.87,0,0,0,20.8,17c-.11.26-.33,0-.33,0a7.05,7.05,0,0,0-3-1.74,7.17,7.17,0,0,0-4,0c-.34.18-.3-.08-.3-.08a2.15,2.15,0,0,1,.22-.73c2.18-4.56,9.29-3.67,9.29-3.67A9,9,0,0,1,31.5,19.1a9.56,9.56,0,0,1-3.41,8c-.33.29-.15.51-.15.51a108,108,0,0,0,4.37,16.51C32.57,45,32.27,44.89,32.09,45Z"/><path class="cls-2" d="M17.62,17.43c.7,3.22,1.26,8.06,1.3,8.51s.22.33.22.33c4.4-1.29,5.73-2.81,5.73-2.81,2.11-2.74,1.59-5.88-.33-7.07A2.88,2.88,0,0,0,20.8,17c-.11.26-.33,0-.33,0a7,7,0,0,0-3-1.73,7.17,7.17,0,0,0-4,0c-.34.18-.3-.08-.3-.08a2.16,2.16,0,0,1,.22-.74c2.18-4.55,9.29-3.66,9.29-3.66a9,9,0,0,1,8.81,8.32,9.56,9.56,0,0,1-3.41,8c-.33.3-.15.52-.15.52a107.77,107.77,0,0,0,4.37,16.5c.26.82,0,.74-.22.82s-3.7,1.81-4.18,2a.43.43,0,0,1-.67-.22c-.22-.63-.89-3.4-2.15-9.1a49.51,49.51,0,0,1-1.36-7.77c-.08-.56-.37-.3-.37-.3s-3.85,1.74-4.15,1.89-.18.3-.18.3c0,1-.6,9.47-.67,9.88s-.26.29-.48.29l-4.63,0c-.4,0-.22-.37-.22-.37v-.07a82.63,82.63,0,0,0,.85-11.77A73.19,73.19,0,0,0,13,19.54c-.08-.41.18-.41.18-.41.3-.15,4.15-1.85,4.15-1.85A.2.2,0,0,1,17.62,17.43ZM28.76,35.49a72.51,72.51,0,0,1-1.89-8.33.43.43,0,0,1,.15-.37,8.89,8.89,0,0,0,3.48-7s.44-7.4-8.37-8.07c0,0-4.66-.48-7.25,2.15,0,0-.37.44,0,.41,0,0,2.19-.78,5.29,1.48,0,0,.15.14.48,0a4,4,0,0,1,5.11.59,5.86,5.86,0,0,1-.07,7.51s-1.45,1.89-7.37,4c0,0-.22.14-.26-.26s-.55-5.41-1.33-8.81c0,0,0-.22-.22-.11s-.15.11-2.59,1.18c0,0-.07,0,0,.26a78.34,78.34,0,0,1,.74,12.51s-.07.18.15.37,2,1.37,3.11,2c0,0,.11,0,.07-.22s0-2.85.07-3.41a.23.23,0,0,1,.15-.29c.22-.15,4.78-2.15,5.7-2.59,0,0,.26-.15.3.26s.37,2.4.85,4.77a.44.44,0,0,0,.18.3c.15.07,1.26.7,3.48,1.88C28.72,35.63,28.83,35.67,28.76,35.49Z"/><path class="cls-2" d="M53.33,45.11c-.23.18-3.93,1.77-4.07,1.81s-.34.11-.41-.15-1-4.7-1.26-5.55S46.41,36,46.3,36s.29-.23-.34.07-2.48,1-2.48,1c-.85.45-3.07,1.3-3.44,1.45a.49.49,0,0,0-.4.44s-.41,1.66-.52,2.37-.52.66-.52.66H34.27c-.19,0-.37,0-.33-.55s2.88-14.1,3-14.58,2.18-10.21,2.26-10.43a.38.38,0,0,1,.41-.3c.18,0,1.66,0,2.14,0s4.29,0,4.74,0,.48.18.52.44,1.11,4.92,1.25,5.51,1.52,6.7,1.67,7.22.29.18.44.18,2.41-1,2.63-1.11.26-.07.26.08,0,1.77,0,2.11,0,1.51,0,2-.19.48-.19.48-1.77.85-1.88.93-.19.15-.11.29S52.25,39,52.44,39.7s1,4.19,1.11,4.74S53.55,44.92,53.33,45.11Zm-2.85-8.18a29.86,29.86,0,0,0-.67-3.18s-.11-.23.19-.34,1.81-.74,2.1-.85a.19.19,0,0,0,.15-.18c0-.19-.15-2.52-.15-2.59s0-.26-.22-.19-2.22,1.11-2.4,1.19a.24.24,0,0,1-.34-.19c-.07-.33-2.66-11.54-2.92-13.13a.16.16,0,0,0-.18-.15l-5.63,0s-.15-.07-.22.34-1,4.77-1.85,8.47-1.41,6.11-1.55,6.77a.13.13,0,0,0,0,.19c.08,0,5.15,3.36,5.29,3.48s.08.07.26,0a46.59,46.59,0,0,1,4.52-1.89.13.13,0,0,1,.15,0c.07,0,3.14,2.14,3.36,2.29C50.4,37,50.48,37.11,50.48,36.93Zm-4.22-5.07c.07.22-.08.22-.08.22-.92.48-6.21,2.52-6.43,2.59s-.15-.18-.15-.18c.18-.93.81-4.48,1.33-6.59s1.41-6.29,1.41-6.29c.07-.26.18-.22.18-.22h1.26a.18.18,0,0,1,.18.18C44.08,22.35,46.22,31.64,46.26,31.86Zm-1-.81c-.15-.67-1.81-7.81-2.07-8.29-.07-.19-.15-.34-.18-.19s-1.45,6.88-1.6,7.62-.48,2.71-.48,2.82,0,.29.45.11,3.55-1.41,3.66-1.48S45.37,31.71,45.22,31.05Z"/><path class="cls-2" d="M71.79,16.24c0,.6,0,4.07,0,4.07,0,.67-.15.78-.15.78-.33.63-4.62,7.55-4.62,7.55-1.22,2.18-5.33,8.47-5.37,8.58s-.11.19.11.15,9.62,0,9.88,0,.19.18.19.18c0,.26,0,3.85,0,4.19s-.18.29-.18.29l-15.14-.15c-.07,0-.18,0-.18-.14s0-3.85,0-4.19a1,1,0,0,1,.18-.74c.11-.25,3.26-5.32,4-6.43s5.77-9.37,5.88-9.55,0-.19,0-.19c-.18,0-8.69,0-9.13,0s-.37-.29-.37-.29,0-3.33,0-4,.48-.4.48-.4c.74.07,14.36.07,14.36.07S71.79,16.24,71.79,16.24ZM60.47,32.56c.22.22,1.7,1.56,1.7,1.56s.07.14.26-.15,6.8-11,8.17-13.43c0,0,.12,0,.12-.3s0-3.11,0-3.11,0-.11-.15-.15c0,0-10.06.08-12.62,0,0,0-.11-.07-.11.23s0,1.33,0,2.33c0,0-.07.11.15.15s8,.07,9.44,0c0,0,.15-.07.18.26v.56a.69.69,0,0,1-.18.37c-.15.26-5.77,9.43-6.88,11.25A.25.25,0,0,0,60.47,32.56Z"/><path class="cls-2" d="M92.62,22.57a26.89,26.89,0,0,1,.11,12.18c-1.44,6-5.92,7.32-5.92,7.32A9.14,9.14,0,0,1,77.71,40c-4.15-3.62-3.48-10.32-3.3-11.25A23.6,23.6,0,0,1,75,26c0-.11,0-.15.15-.15a.68.68,0,0,1,.41.19,14.25,14.25,0,0,0,4,1.15c.41.07.26.22.26.22A25.13,25.13,0,0,0,79.59,32c.23,5.52,4.19,5.44,4.19,5.44,2.81-.29,4.21-2.36,4.36-8.51s-2.07-7.4-2.07-7.4a3.12,3.12,0,0,0-4-.22,2.21,2.21,0,0,0-.19,3.11c-2.44,1.44-6.22-1.44-6.66-1.85S75,22,75,22a9.27,9.27,0,0,1,9.43-6.51C91.06,15.76,92.62,22.57,92.62,22.57ZM79,34.26A20.88,20.88,0,0,1,78.82,28a.13.13,0,0,0-.08-.11,8.37,8.37,0,0,1-3-.77s-.07,0-.11.07a20.27,20.27,0,0,0-.55,5.11s-.08.07.07.14a13.75,13.75,0,0,0,3.66,2S79,34.45,79,34.26Zm13.47-8.65s-.33-8.81-7.91-9.25A8.36,8.36,0,0,0,75.86,22s-.11.11.18.33a7.7,7.7,0,0,0,4.29,1.56s0,.11.08-.19a3.2,3.2,0,0,1,2.48-3.81s3.73-1,5.29,3.26c0,0,1.33,2.85.7,8.77,0,0,0,.18.08.22s2.33,1.4,3,1.74c0,0,.08.11.11-.15A24.49,24.49,0,0,0,92.43,25.61Z"/><path class="cls-2" d="M100.83,17.43c.7,3.22,1.26,8.06,1.3,8.51s.22.33.22.33c4.4-1.29,5.73-2.81,5.73-2.81,2.11-2.74,1.6-5.88-.33-7.07A2.88,2.88,0,0,0,104,17c-.11.26-.33,0-.33,0a7,7,0,0,0-3-1.73,7.17,7.17,0,0,0-4,0c-.34.18-.3-.08-.3-.08a2.16,2.16,0,0,1,.22-.74c2.19-4.55,9.29-3.66,9.29-3.66a9,9,0,0,1,8.81,8.32,9.53,9.53,0,0,1-3.41,8c-.33.3-.14.52-.14.52a107,107,0,0,0,4.36,16.5c.26.82,0,.74-.22.82s-3.7,1.81-4.18,2a.43.43,0,0,1-.67-.22c-.22-.63-.89-3.4-2.14-9.1a49,49,0,0,1-1.37-7.77c-.08-.56-.37-.3-.37-.3s-3.85,1.74-4.15,1.89-.18.3-.18.3c0,1-.59,9.47-.67,9.88s-.26.29-.48.29l-4.62,0c-.41,0-.23-.37-.23-.37v-.07a82.63,82.63,0,0,0,.85-11.77,73.19,73.19,0,0,0-.92-10.17c-.07-.41.18-.41.18-.41.3-.15,4.15-1.85,4.15-1.85A.2.2,0,0,1,100.83,17.43ZM112,35.49a75.16,75.16,0,0,1-1.89-8.33.47.47,0,0,1,.15-.37,8.86,8.86,0,0,0,3.48-7s.44-7.4-8.36-8.07c0,0-4.67-.48-7.26,2.15,0,0-.37.44,0,.41,0,0,2.19-.78,5.29,1.48,0,0,.15.14.49,0a4,4,0,0,1,5.1.59,5.86,5.86,0,0,1-.07,7.51s-1.44,1.89-7.37,4c0,0-.22.14-.25-.26s-.56-5.41-1.34-8.81c0,0,0-.22-.22-.11s-.15.11-2.59,1.18c0,0-.07,0,0,.26a78.34,78.34,0,0,1,.74,12.51s-.07.18.15.37,2,1.37,3.11,2c0,0,.11,0,.07-.22s0-2.85.08-3.41a.22.22,0,0,1,.14-.29c.23-.15,4.78-2.15,5.7-2.59,0,0,.26-.15.3.26s.37,2.4.85,4.77a.49.49,0,0,0,.18.3c.15.07,1.26.7,3.48,1.88C111.93,35.63,112,35.67,112,35.49Z"/><path class="cls-2" d="M122.37,16.32c0,.37,0,4.44,0,4.73s0,.37-.15.49l-2.37,3.4c-.22.33-.37.22-.37.22s-1.3-.74-1.48-.81-.15-.22-.15-.22,1-2.59,1.11-2.71,0-.14,0-.14h-1a.24.24,0,0,1-.15-.11c0-.08,0-4.48,0-4.78s.22-.29.22-.29l4.07.07C122.33,16.17,122.37,16.32,122.37,16.32Zm-1.11.74-2.37,0s-.19,0-.15.15,0,3.07,0,3.07-.08.11.14.11H120a6.76,6.76,0,0,1,0,.82.61.61,0,0,1-.11.29c0,.08-.89,2.3-.89,2.3a.05.05,0,0,0,0,.07l.26.15s0,.07.08-.08,1.92-2.77,1.92-2.77a.35.35,0,0,0,.07-.22V17.24S121.48,17.06,121.26,17.06Z"/><path class="cls-2" d="M138.57,10.8c.08.41,1.82,5.33,1.89,5.59s-.11.26-.11.26a22.68,22.68,0,0,0-3.11.11c-2.37.15-6.25,1.48-6.77,4.15s2.7,4.62,2.7,4.62c6.44,2.93,7.47,5.4,7.47,5.4a9.6,9.6,0,0,1,.48,9.77c-1,1.82-3.4,3-4.4,3.44a52.76,52.76,0,0,1-6,1.82A24.06,24.06,0,0,0,127.51,47c-.48.15-.45,0-.48-.07s-1.59-5.55-1.7-5.81.18-.26.18-.26a18.19,18.19,0,0,0,7.88-.67,4.73,4.73,0,0,0,3.52-4.85c-.63-3.44-2.78-3.44-6.44-5.58a9.89,9.89,0,0,1-5.14-7A8.08,8.08,0,0,1,127,16.13c1.92-2.33,5-3,7.51-3.81a18.19,18.19,0,0,0,3.74-1.55C138.46,10.51,138.57,10.8,138.57,10.8Zm2.78,25.91a7.91,7.91,0,0,0-3.07-7.18c-3.7-3-7-3.11-8.22-5.89,0,0-2.22-3,1.44-6a14.65,14.65,0,0,1,7.55-1.88s.22,0,.08-.37a24.31,24.31,0,0,0-1.19-3.08s0-.22-.18-.18c0,0-.63.52-5.81,2.11s-5.7,5-5.77,7.25.59,5.33,4.95,7.73,5.11,2.23,6.26,4.82a1.21,1.21,0,0,0,.59.7c.44.22,1.37,1,3.22,2.22C141.2,36.93,141.31,37,141.35,36.71Z"/><path class="cls-2" d="M170.47,16.36v3.21a4.84,4.84,0,0,1-.08,1.34A14.34,14.34,0,0,1,168,21c-1,.07-8.17-.07-8.58-.07s-.33.14-.33.29.07,1.26.07,1.67,0,3.92,0,4.7.29.48.29.48.63-.26,1.15-.45,5.18-2.14,5.18-2.14c.26-.08.44-.22.48-.15a2.48,2.48,0,0,1,0,.63c0,.33,0,3.48,0,3.81s-.52.48-1.23.74-5.73,2.37-5.84,2.44-.11.19-.11.19c0,.15.11,3.55.11,3.85s0,.22.26.22,3.66,0,4.14,0,6.33,0,6.62,0,.26.22.26.48.08,3.44,0,3.81-.11.41-.26.41-6.58.07-7.21,0-8.66,0-8.92,0a.2.2,0,0,1-.22-.19c0-1.33-.08-6.44-.08-7s0-9,0-9.7,0-8.47,0-8.66,0-.29.25-.29,7.59,0,8.7,0,7.33,0,7.33,0A.24.24,0,0,1,170.47,16.36Zm-12.22,15.8c.19-.08,6.29-2.37,7-2.74,0,0,.15,0,.11-.23a15.71,15.71,0,0,0,0-2.21s0-.19-.22-.08-6.44,2.52-6.85,2.7c0,0-.18.08-.18-.26s0-8.29.07-9.36c0,0,0-.22.19-.22s10.36.18,11.06.15c0,0,.15.07.15-.26a21.91,21.91,0,0,0,.07-2.26s0-.11-.07-.11S157,17,155.33,17c0,0-.15,0-.18.3s0,12.54.07,15c0,0-.07.11.15.26s2.44,1.66,2.44,1.66a1,1,0,0,0,.15-.3c0-.07.11-1.48.11-1.48S158,32.27,158.25,32.16Z"/><path class="cls-2" d="M178.86,17.5c.15.74.11.67.67,3.3a64.64,64.64,0,0,1,.78,9c0,1.37-.23,6.4-.3,7s.26.37.26.37a14.64,14.64,0,0,0,3.29.07c2.59-.11,3.19-1.81,3.59-3a24.31,24.31,0,0,0,.48-4.88,49.66,49.66,0,0,0-.22-8.4c-.48-4-2.92-4.44-2.92-4.44a2.62,2.62,0,0,0-2.67.81c-.18.23-.26,0-.26,0-2.36-2.77-6.32-2.22-6.73-2s-.37-.08-.37-.08a4.67,4.67,0,0,1,.85-1.73c2.11-2,3.29-2.26,6.18-2.63a10.65,10.65,0,0,1,5.63,1.07c3.81,1.78,5.14,6.37,5.14,6.37,1.29,3.58,1.18,7.58,1.18,9.58a31,31,0,0,1-1.18,8.1,10.76,10.76,0,0,1-3.63,4.85c-1.92,1.48-5.62,1.33-6.88,1.3s-7-.08-7.33-.08a.17.17,0,0,1-.18-.26c.26-1.11.37-3.25.66-6.29a88.78,88.78,0,0,0-.11-11,47.67,47.67,0,0,0-.59-5c0-.15,0-.15.15-.26s.7-.33,1.92-.89,2.22-1,2.22-1C178.72,17.21,178.75,17.13,178.86,17.5ZM178,18.69s0-.19-.15-.15-2,1.11-2.25,1.15c0,0-.08.07,0,.25s1,7.52.48,11.59c0,0,0,.14.07.18s2,1.52,2.89,2.18c0,0,.08,0,.08-.07A62.5,62.5,0,0,0,178,18.69Zm12.36-2.33A8.85,8.85,0,0,0,184,12s-4.89-.55-7.51,1.74c0,0-.3.3-.08.3,0,0,3.44-.22,5.14,1.81,0,0,0,0,.12,0a3.86,3.86,0,0,1,3.25-.52,4,4,0,0,1,2.63,2.33c.41.71,1.18,2,1.22,6.44s-.15,7.62-.15,7.62,0,.26.11.37,2.15,1.6,2.67,2c0,0,.07.07.11-.07s.48-.78.74-5.11S192.26,20.09,190.37,16.36Z"/><path class="cls-2" d="M209.46,11.69c.26.45,2.3,4.22,2.45,4.52s-.3.55-.3.55c-.67.48-1.59.93-4.29,2.48a11.84,11.84,0,0,0-4.41,3.81c-.88,1.22-2.25,4.18-1.55,9.59s4.14,5,5.07,4.77a2.86,2.86,0,0,0,2.07-2.89A3,3,0,0,0,207,32c-.08,0-.26,0-.3-.18s.33-.26.81-.49,6.18-2.47,6.33-2.55.19,0,.22.15,0,1.48,0,1.48c-.11,1.78,0,11.14,0,11.32a.17.17,0,0,1-.23.19,9.66,9.66,0,0,0-2.58-.3c-.63,0-4,.74-4.63.89a9.43,9.43,0,0,1-9.92-6.25c-.92-2.26-.88-4.93-.88-7.07a16.86,16.86,0,0,1,2.1-8.22c1.6-3,4.19-4.51,6.81-6.29a22.46,22.46,0,0,0,3.7-2.73c.48-.45.45-.41.52-.56s.19-.11.19-.11S209.2,11.29,209.46,11.69Zm-9.17,21.46c0-.25-1.15-6.88,1.59-10.58s4.84-4.11,8.73-6.51c0,0,.11-.07,0-.19a16,16,0,0,1-1.52-2.7.1.1,0,0,0-.14-.07s-.3.52-5.7,4.07A13.18,13.18,0,0,0,197.36,27c-.11.85-.29,4.1-.29,4.58,0,0-.08.15.11.23a31.83,31.83,0,0,0,3,1.59S200.36,33.41,200.29,33.15Z"/><path class="cls-2" d="M233.92,16.36v3.21a4.9,4.9,0,0,1-.07,1.34,14.4,14.4,0,0,1-2.37.07c-1,.07-8.18-.07-8.59-.07s-.33.14-.33.29.07,1.26.07,1.67,0,3.92,0,4.7.3.48.3.48.63-.26,1.14-.45,5.18-2.14,5.18-2.14c.26-.08.45-.22.49-.15a3.29,3.29,0,0,1,0,.63c0,.33,0,3.48,0,3.81s-.52.48-1.22.74-5.74,2.37-5.85,2.44-.11.19-.11.19c0,.15.11,3.55.11,3.85s0,.22.26.22,3.66,0,4.15,0,6.32,0,6.62,0,.26.22.26.48.07,3.44,0,3.81-.11.41-.25.41-6.59.07-7.22,0-8.66,0-8.92,0a.2.2,0,0,1-.22-.19c0-1.33-.07-6.44-.07-7s0-9,0-9.7,0-8.47,0-8.66,0-.29.26-.29,7.58,0,8.69,0,7.33,0,7.33,0A.24.24,0,0,1,233.92,16.36Zm-12.21,15.8c.18-.08,6.29-2.37,7-2.74,0,0,.15,0,.11-.23a15.34,15.34,0,0,0,0-2.21s0-.19-.23-.08-6.43,2.52-6.84,2.7c0,0-.19.08-.19-.26s0-8.29.08-9.36c0,0,0-.22.18-.22s10.36.18,11.07.15c0,0,.14.07.14-.26a22,22,0,0,0,.08-2.26.08.08,0,0,0-.08-.11S220.45,17,218.79,17c0,0-.15,0-.19.3s0,12.54.07,15c0,0-.07.11.15.26s2.44,1.66,2.44,1.66a1,1,0,0,0,.15-.3c0-.07.11-1.48.11-1.48S221.49,32.27,221.71,32.16Z"/></svg>